<?xml version="1.0" standalone="no"?>
<!DOCTYPE svg PUBLIC "-//W3C//DTD SVG 20010904//EN"
 "http://www.w3.org/TR/2001/REC-SVG-20010904/DTD/svg10.dtd">
<svg version="1.0" xmlns="http://www.w3.org/2000/svg"
 width="250.000000pt" height="250.000000pt" viewBox="0 0 250.000000 250.000000"
 preserveAspectRatio="xMidYMid meet">

<g transform="translate(0.000000,250.000000) scale(0.100000,-0.100000)"
fill="#000000" stroke="none">
<path d="M1108 2058 c-53 -90 -147 -248 -209 -353 -176 -296 -172 -287 -172
-364 -1 -94 15 -137 79 -215 l56 -68 -61 -99 c-33 -54 -66 -119 -72 -145 -17
-64 -6 -155 26 -220 52 -107 200 -227 361 -294 l77 -32 56 22 c155 59 345 211
397 316 15 30 36 60 47 66 45 24 165 118 197 154 53 61 84 138 84 215 1 82
-12 108 -263 534 -101 171 -188 320 -194 333 -6 12 -13 22 -16 22 -4 0 -17
-20 -31 -45 -14 -25 -29 -45 -35 -45 -5 0 -56 80 -113 178 -56 97 -106 183
-110 190 -6 8 -40 -41 -104 -150z m187 -158 c48 -82 85 -155 83 -162 -7 -28
-113 -198 -123 -198 -6 0 -21 21 -34 47 l-23 48 -22 -41 c-60 -115 -263 -444
-273 -444 -18 0 -70 80 -83 130 -20 74 -7 120 72 253 142 242 225 383 263 450
22 37 42 67 46 67 4 0 46 -67 94 -150z m329 -343 c66 -111 151 -256 190 -322
70 -118 71 -121 71 -190 0 -83 -15 -113 -99 -195 -57 -56 -102 -86 -109 -73
-2 5 -10 25 -17 47 -7 21 -89 168 -182 327 -93 159 -168 295 -166 302 6 27
173 306 183 307 6 0 64 -91 129 -203z m-383 -169 c234 -400 332 -578 339 -618
5 -28 4 -64 -2 -95 -9 -42 -21 -60 -77 -116 -68 -68 -197 -159 -225 -159 -14
0 -16 16 -16 103 l0 102 109 67 c59 37 116 70 125 74 9 3 16 14 16 23 -1 16
-23 51 -33 51 -3 0 -50 -27 -105 -60 -54 -33 -104 -60 -111 -60 -8 0 -11 17
-9 57 l3 57 78 47 c42 25 80 48 83 51 6 7 -17 58 -27 58 -4 0 -34 -16 -66 -35
-32 -19 -61 -35 -65 -35 -5 0 -8 24 -8 54 0 53 1 55 45 83 48 30 52 38 31 66
-16 21 -25 21 -48 0 -10 -9 -21 -13 -25 -10 -3 4 -7 46 -7 94 l-1 88 -42 3
-43 3 0 -85 c0 -48 -5 -88 -10 -91 -6 -4 -22 0 -35 9 -23 15 -25 14 -40 -6
-22 -33 -19 -41 30 -70 45 -27 45 -28 45 -83 0 -54 -11 -68 -35 -47 -6 5 -35
23 -66 40 l-56 31 -15 -33 -16 -33 94 -54 94 -54 0 -52 c0 -30 -5 -53 -10 -53
-6 0 -58 28 -117 62 l-106 62 -18 -23 c-24 -30 -24 -38 4 -52 12 -6 73 -43
135 -81 l112 -70 0 -53 c0 -93 -11 -145 -30 -145 -29 0 -162 94 -221 156 -69
73 -93 132 -87 211 4 63 -8 39 265 501 63 105 116 192 118 192 2 0 23 -33 46
-72z"/>
<path d="M1552 398 c-7 -7 -12 -17 -12 -22 0 -6 5 -3 11 7 5 9 18 17 29 17 24
0 36 -36 18 -57 -11 -14 -11 -15 2 -11 19 6 25 45 10 64 -15 17 -42 18 -58 2z"/>
<path d="M1560 366 c0 -7 7 -13 15 -13 8 0 15 4 15 8 0 4 -7 9 -15 13 -9 3
-15 0 -15 -8z"/>
<path d="M1540 351 c0 -6 4 -13 10 -16 6 -3 7 1 4 9 -7 18 -14 21 -14 7z"/>
</g>
</svg>
